<svg width="256" height="256" viewBox="0 0 256 256" fill="none" xmlns="http://www.w3.org/2000/svg">
<g clip-path="url(#clip0_1767_23)">
<rect width="256" height="256" rx="32" fill="#00074D"/>
<g filter="url(#filter0_f_1767_23)">
<path d="M142.406 292.854C143.01 333.166 107.776 322.134 90.084 311.579C80.0282 311.135 56.4053 309.008 42.36 304.053C24.8035 297.86 4.89497 279.451 -1.33019 253.36C-7.55534 227.269 -29.2687 229.178 -60.3581 211.87C-91.4475 194.561 -105.429 178.964 -90.6139 144.24C-75.7987 109.517 -28.0647 78.7964 -1.33912 86.3509C25.3865 93.9053 34.1633 127.44 30.613 143.856C27.0626 160.273 66.5221 198.03 107.604 204.625C148.686 211.22 141.652 242.463 142.406 292.854Z" fill="#AC02D2" fill-opacity="0.25"/>
</g>
<g filter="url(#filter1_f_1767_23)">
<path d="M109.418 -13.0005C139.98 -88.568 190.28 -82.9704 211.61 -70.7257C301.705 -7.75272 427.837 130.555 211.61 180C183.595 165.812 144.374 127.989 211.61 90.2052C295.656 42.9755 71.2158 81.459 109.418 -13.0005Z" fill="#AC02D2" fill-opacity="0.25"/>
</g>
<path d="M180.758 131.624C180.758 161.359 155.937 185.35 125.913 183.941C98.815 182.713 76.6671 160.095 76.0168 132.961C75.6555 118.436 81.1473 104.743 91.336 94.5543C94.8768 91.0496 100.585 91.0496 104.126 94.5543C107.631 98.0951 107.631 103.804 104.126 107.344C96.6833 114.787 93.0703 125.085 94.3348 135.779C96.1775 151.46 109.004 164.105 124.72 165.731C145.315 167.899 162.766 151.749 162.766 131.588C162.766 122.411 159.189 113.776 152.721 107.308C149.217 103.768 149.217 98.0589 152.721 94.5181C156.262 91.0135 161.971 91.0135 165.511 94.5181C175.375 104.418 180.831 117.569 180.831 131.588L180.758 131.624Z" fill="white"/>
<path d="M137.402 81.0434V109.442C137.402 114.175 134.006 118.475 129.309 118.944C123.889 119.486 119.337 115.259 119.337 109.948V81.5492C119.337 76.8161 122.733 72.5166 127.43 72.0469C132.85 71.5049 137.402 75.7322 137.402 81.0434Z" fill="white"/>
</g>
<defs>
<filter id="filter0_f_1767_23" x="-146.547" y="35.1973" width="338.991" height="336.207" filterUnits="userSpaceOnUse" color-interpolation-filters="sRGB">
<feFlood flood-opacity="0" result="BackgroundImageFix"/>
<feBlend mode="normal" in="SourceGraphic" in2="BackgroundImageFix" result="shape"/>
<feGaussianBlur stdDeviation="25" result="effect1_foregroundBlur_1767_23"/>
</filter>
<filter id="filter1_f_1767_23" x="55" y="-128" width="326" height="358" filterUnits="userSpaceOnUse" color-interpolation-filters="sRGB">
<feFlood flood-opacity="0" result="BackgroundImageFix"/>
<feBlend mode="normal" in="SourceGraphic" in2="BackgroundImageFix" result="shape"/>
<feGaussianBlur stdDeviation="25" result="effect1_foregroundBlur_1767_23"/>
</filter>
<clipPath id="clip0_1767_23">
<rect width="256" height="256" rx="32" fill="white"/>
</clipPath>
</defs>
</svg>
